<?xml version="1.0" encoding="utf-8"?>
<!-- Generator: Adobe Illustrator 24.0.3, SVG Export Plug-In . SVG Version: 6.00 Build 0)  -->
<svg version="1.1" id="Layer_1" xmlns="http://www.w3.org/2000/svg" xmlns:xlink="http://www.w3.org/1999/xlink" x="0px" y="0px"
	 viewBox="0 0 139.6 35.8" style="enable-background:new 0 0 139.6 35.8;" xml:space="preserve">
<style type="text/css">
	.st0{fill:#096067;}
</style>
<g>
	<g>
		<path class="st0" d="M16.4,30.4c-1.6,0.4-3.2,0.9-4.7,1.3c-0.3-1.8-0.5-3.6-0.8-5.5c-1.9,0.5-3.8,1-5.8,1.5
			c-0.3,2.1-0.6,4.2-0.8,6.3c-1.4,0.5-2.8,1-4.3,1.5c1.6-12.2,3.2-23.9,4.9-35c2.3,0,4.7,0,7,0C13.4,10.8,14.9,20.8,16.4,30.4z
			 M5.7,23c1.5-0.3,3-0.7,4.5-1C9.5,16.8,8.8,11.5,8.1,6.1C7.3,11.6,6.5,17.2,5.7,23z"/>
		<path class="st0" d="M22.7,0c4.6,0,7,2.5,6.9,6.8c0,0.3,0,0.6,0,0.8c-1.5,0.1-3,0.2-4.5,0.3c0-0.4,0-0.8,0-1.2
			c0-2-0.8-2.7-2.3-2.7s-2.4,0.9-2.4,2.9c-0.1,6,9.2,6.2,9.1,13.8C29.4,25,27,27.9,22.3,29c-4.7,1.1-7-0.9-7-5.8c0-0.6,0-1.2,0-1.9
			c1.5-0.3,3-0.6,4.5-0.8c0,0.7,0,1.4,0,2.1c0,2.1,0.9,2.6,2.4,2.3c1.5-0.3,2.5-1.2,2.5-3.2c0.1-5.7-9.2-5.5-9.1-14.3
			C15.7,2.7,18.1,0,22.7,0z"/>
		<path class="st0" d="M28.5,0.3c4.9,0,9.8,0,14.7,0c0,1.2,0,2.4,0,3.5c-1.7,0-3.3,0.1-5,0.1c-0.1,7.3-0.2,14.6-0.3,21.9
			c-1.6,0.2-3.2,0.5-4.8,0.8c0.1-7.5,0.2-15,0.3-22.6c-1.7,0-3.3,0.1-5,0.1C28.5,2.9,28.5,1.6,28.5,0.3z"/>
		<path class="st0" d="M53.4,24c-0.3-0.6-0.4-1-0.4-2.9c0-1.2,0-2.5,0-3.7c0-2.2-0.9-3-3.1-2.9c-0.6,0-1.1,0.1-1.7,0.1
			c0,3.3-0.1,6.6-0.1,9.9c-1.6,0.2-3.2,0.4-4.8,0.6c0.1-8.3,0.2-16.5,0.3-24.8c2.4,0,4.8,0,7.2,0c4.9,0,7.1,1.8,7,5.4
			c0,0.6,0,1.2,0,1.8c0,2.4-1,4-3.2,4.9c2.4,0.7,3.2,2.4,3.2,4.9c0,1.2,0,2.4,0,3.6c0,1.1,0,2,0.5,2.8C56.6,23.8,55,23.9,53.4,24z
			 M48.3,3.7c0,2.5-0.1,5-0.1,7.4c0.6,0,1.2-0.1,1.9-0.1c1.8,0,2.9-0.6,2.9-2.5c0-0.8,0-1.6,0-2.3c0-1.7-0.7-2.4-2.4-2.4
			C49.9,3.7,49.1,3.7,48.3,3.7z"/>
		<path class="st0" d="M58,5.9C58,2.1,60.6,0,65.3,0c4.7,0,7.2,2.1,7.3,5.8c0,4,0,8,0,12c0,3.7-2.6,5.7-7.3,5.8
			C60.5,23.7,58,21.8,58,18C58,14,58,10,58,5.9z M62.7,18.2c0,1.7,1,2.3,2.5,2.2c1.5,0,2.5-0.7,2.5-2.3c0-4.2,0-8.3,0-12.5
			c0-1.7-1-2.3-2.5-2.3s-2.5,0.6-2.5,2.3C62.8,9.8,62.8,14,62.7,18.2z"/>
		<path class="st0" d="M77.3,6.7c0,5.6,0.1,11.2,0.1,16.8c-1.5-0.1-2.9-0.1-4.4-0.1c0-7.7,0-15.4,0-23.1c2,0,4,0,6,0
			c1.7,4.7,3.3,9.4,5,14.1c0-4.7-0.1-9.4-0.1-14.1c1.4,0,2.8,0,4.3,0c0.1,8,0.2,16,0.3,23.9c-1.7-0.1-3.3-0.3-5-0.4
			C81.3,18,79.3,12.3,77.3,6.7z"/>
		<path class="st0" d="M88.6,6c0-3.8,2.5-6,7.2-6s7.3,2.3,7.3,6.5c0.1,4.5,0.1,8.9,0.2,13.4c0.1,4.2-2.5,6.1-7.2,5.4
			c-4.7-0.6-7.3-3-7.4-6.8C88.7,14.3,88.6,10.2,88.6,6z M93.6,19.1c0,1.7,1,2.5,2.5,2.7s2.5-0.4,2.5-2.2c-0.1-4.5-0.1-9-0.2-13.5
			c0-1.8-1-2.5-2.5-2.5S93.4,4.2,93.5,6C93.4,10.3,93.5,14.7,93.6,19.1z"/>
		<path class="st0" d="M113.9,20.1c1-6.4,2-13,3-19.7c2.2,0,4.4,0,6.6,0c0.1,10.1,0.2,20.1,0.3,30.2c-1.5-0.4-3-0.8-4.5-1.1
			c-0.1-6.9-0.2-13.9-0.3-20.8c-1,6.9-2,13.5-3,20c-1.5-0.3-3-0.7-4.5-1c-1.3-6.7-2.6-13.2-3.8-19.5c0.1,6.3,0.2,12.5,0.3,18.8
			c-1.4-0.3-2.8-0.5-4.2-0.7c-0.1-8.6-0.3-17.3-0.4-25.9c2.2,0,4.4,0,6.6,0C111.4,6.7,112.6,13.3,113.9,20.1z"/>
		<path class="st0" d="M129,21.5c-2-7.4-4.1-14.5-6.2-21.2c1.7,0,3.3,0,5,0c1.3,4.8,2.5,9.7,3.7,14.8c1.2-4.7,2.4-9.7,3.6-14.7
			c1.5,0,3,0,4.6,0c-2,7.8-4,15.1-5.9,22.1c0,3.7,0,7.3,0.1,11c-1.6-0.5-3.1-1-4.7-1.4C129,28.5,129,25,129,21.5z"/>
	</g>
</g>
</svg>
