<?xml version="1.0" encoding="utf-8"?>
<!-- Generator: Adobe Illustrator 24.0.3, SVG Export Plug-In . SVG Version: 6.00 Build 0)  -->
<svg version="1.1" id="Layer_1" xmlns="http://www.w3.org/2000/svg" xmlns:xlink="http://www.w3.org/1999/xlink" x="0px" y="0px"
	 viewBox="0 0 138.96 42" style="enable-background:new 0 0 138.96 42;" xml:space="preserve">
<style type="text/css">
	.st0{fill:#096067;}
</style>
<g>
	<g>
		<path class="st0" d="M22.78,35.9c-2.21,0.47-4.42,0.97-6.61,1.51c-0.36-2.17-0.72-4.36-1.08-6.56c-2.68,0.55-5.35,1.13-8.01,1.76
			c-0.38,2.5-0.77,5.02-1.15,7.55C3.94,40.75,1.97,41.36,0,42C2.18,27.29,4.43,13.32,6.72,0c3.22,0,6.44,0,9.66,0
			C18.53,12.47,20.65,24.41,22.78,35.9z M7.92,27.04c2.1-0.41,4.2-0.79,6.3-1.15c-1.01-6.21-2.02-12.55-3.04-19.03
			C10.09,13.44,9,20.16,7.92,27.04z"/>
		<path class="st0" d="M31.23,34.27c-2.2,0.38-4.4,0.79-6.59,1.24C24.74,23.67,24.85,11.84,24.96,0c2.2,0,4.4,0,6.6,0
			c-0.05,4.9-0.1,9.79-0.14,14.69c2.5-0.19,5.01-0.35,7.51-0.5C38.97,9.46,39.02,4.73,39.06,0c2.24,0,4.48,0,6.72,0
			c-0.09,10.76-0.18,21.52-0.26,32.27c-2.26,0.24-4.51,0.52-6.77,0.83c0.04-4.73,0.09-9.46,0.13-14.19
			c-2.51,0.2-5.01,0.42-7.51,0.67C31.32,24.48,31.27,29.38,31.23,34.27z"/>
		<path class="st0" d="M50.05,24.79c-0.26-3.82-0.51-7.64-0.76-11.48c0.03-4.44,0.06-8.88,0.1-13.31c2.2,0,4.4,0,6.6,0
			c-0.02,4.37-0.05,8.73-0.07,13.1c-0.3,3.79-0.6,7.59-0.91,11.39C53.35,24.58,51.7,24.68,50.05,24.79z M55.72,26.66
			c-0.01,1.59-0.02,3.17-0.02,4.76c-2.14,0.13-4.29,0.29-6.42,0.49c0.01-1.61,0.02-3.22,0.03-4.83
			C51.44,26.91,53.58,26.77,55.72,26.66z"/>
		<path class="st0" d="M74.3,13.79c2.86,0.03,5.71,0.08,8.56,0.16c0.01,1.5,0.02,2.99,0.02,4.49c-2.86-0.1-5.72-0.17-8.58-0.21
			c0.01,4.27,0.02,8.55,0.02,12.82C72.11,31,69.88,30.98,67.66,31c0.01-10.33,0.02-20.67,0.02-31c5.82,0,11.64,0,17.46,0
			c0.01,1.5,0.02,3,0.03,4.51c-3.63-0.04-7.25-0.06-10.88-0.07C74.29,7.55,74.3,10.67,74.3,13.79z"/>
		<path class="st0" d="M87.12,0c2.2,0,4.4,0,6.6,0c0.08,9.24,0.15,18.48,0.23,27.71c3.64,0.34,7.28,0.76,10.91,1.26
			c0.02,1.61,0.03,3.22,0.05,4.83c-5.84-0.93-11.7-1.63-17.58-2.1C87.26,21.14,87.19,10.57,87.12,0z"/>
		<path class="st0" d="M106.26,0c2.2,0,4.4,0,6.6,0c0.11,11.76,0.22,23.52,0.33,35.28c-2.2-0.44-4.4-0.84-6.6-1.21
			C106.48,22.72,106.37,11.36,106.26,0z"/>
		<path class="st0" d="M138.48,0c-2.3,6.78-4.57,13.2-6.82,19.32c2.47,7.16,4.91,14.7,7.3,22.67c-2.26-0.73-4.53-1.43-6.81-2.09
			c-1.79-5.78-3.59-11.33-5.41-16.68c-1.77,4.78-3.54,9.39-5.31,13.85c-2.04-0.49-4.09-0.94-6.14-1.37
			c2.39-5.61,4.79-11.44,7.19-17.56c-2.33-6.32-4.68-12.35-7.04-18.15c2.28,0,4.56,0,6.84,0c1.69,4.59,3.38,9.32,5.06,14.23
			C129,9.65,130.67,4.92,132.36,0C134.4,0,136.44,0,138.48,0z"/>
	</g>
</g>
</svg>
